<svg xmlns="http://www.w3.org/2000/svg" xmlns:xlink="http://www.w3.org/1999/xlink" width="2000" zoomAndPan="magnify" viewBox="0 0 1500 1499.999933" height="2000" preserveAspectRatio="xMidYMid meet" version="1.0"><defs><clipPath id="f4fbbdb022"><path d="M 1 0 L 1500 0 L 1500 1500 L 1 1500 Z M 1 0 " clip-rule="nonzero"/></clipPath><clipPath id="59422bbe26"><path d="M 1.941406 729.070312 L 772.621094 0.515625 L 1501.175781 771.195312 L 730.496094 1499.75 Z M 1.941406 729.070312 " clip-rule="nonzero"/></clipPath><clipPath id="e443b24b81"><path d="M 26 23 L 1496 23 L 1496 1472 L 26 1472 Z M 26 23 " clip-rule="nonzero"/></clipPath><clipPath id="4a1cdd1922"><path d="M 0.941406 729.070312 L 771.621094 0.515625 L 1500.175781 771.195312 L 729.496094 1499.75 Z M 0.941406 729.070312 " clip-rule="nonzero"/></clipPath><clipPath id="f3c2154b16"><path d="M 771.84375 0.304688 L 1.164062 728.859375 L 729.71875 1499.539062 L 1500.398438 770.984375 Z M 771.84375 0.304688 " clip-rule="nonzero"/></clipPath><clipPath id="25ce1f0d4f"><path d="M 771.84375 0.304688 L 1.164062 728.859375 L 729.71875 1499.539062 L 1500.398438 770.984375 Z M 771.84375 0.304688 " clip-rule="nonzero"/></clipPath><clipPath id="f723f7f61d"><rect x="0" width="1499" y="0" height="1500"/></clipPath><clipPath id="b3f29ae986"><path d="M 65 64 L 1442 64 L 1442 1441 L 65 1441 Z M 65 64 " clip-rule="nonzero"/></clipPath><clipPath id="0e73acbd5b"><path d="M 751.652344 0.00390625 L 1496.34375 744.695312 L 744.691406 1496.347656 L 0 751.65625 Z M 751.652344 0.00390625 " clip-rule="nonzero"/></clipPath><clipPath id="1c67b59f1a"><path d="M 751.652344 0.00390625 L 1496.34375 744.695312 L 744.691406 1496.347656 L 0 751.65625 Z M 751.652344 0.00390625 " clip-rule="nonzero"/></clipPath><clipPath id="e69adf2c74"><rect x="0" width="1500" y="0" height="1500"/></clipPath><clipPath id="c6b81d65f0"><path d="M 483.523438 617 L 599 617 L 599 782 L 483.523438 782 Z M 483.523438 617 " clip-rule="nonzero"/></clipPath><clipPath id="25d13a61f3"><path d="M 752 839 L 913 839 L 913 1172.585938 L 752 1172.585938 Z M 752 839 " clip-rule="nonzero"/></clipPath><clipPath id="25f1dc59b3"><path d="M 753 274.085938 L 844 274.085938 L 844 372 L 753 372 Z M 753 274.085938 " clip-rule="nonzero"/></clipPath><clipPath id="5be08cbe6a"><path d="M 743 612 L 1092.523438 612 L 1092.523438 812 L 743 812 Z M 743 612 " clip-rule="nonzero"/></clipPath></defs><g transform="matrix(1, 0, 0, 1, 0, 0.000000000000112861)"><g clip-path="url(#e69adf2c74)"><g clip-path="url(#f4fbbdb022)"><g clip-path="url(#59422bbe26)"><g transform="matrix(1, 0, 0, 1, 1, 0.000000000000112854)"><g clip-path="url(#f723f7f61d)"><g clip-path="url(#e443b24b81)"><g clip-path="url(#4a1cdd1922)"><g clip-path="url(#f3c2154b16)"><g clip-path="url(#25ce1f0d4f)"><path fill="#76dee2" d="M 759.832031 1466.992188 L 756.5625 1464.601562 L 735.988281 1444.585938 C 733.964844 1442.507812 731.769531 1442.773438 729.398438 1445.371094 L 717.675781 1434.578125 L 726.066406 1446.078125 C 717.1875 1436.726562 716.691406 1437.136719 724.574219 1447.308594 L 691.5625 1416.460938 C 626.203125 1347.859375 463.074219 1187.585938 202.179688 935.644531 L 91.746094 824.902344 C 88.472656 821.210938 92.300781 824.445312 103.226562 834.609375 C 88.664062 820.683594 79.710938 810.53125 76.367188 804.152344 L 26.578125 751.328125 L 69.929688 790.195312 L 27.277344 746.550781 L 32.921875 709.296875 C 48.589844 692.933594 57.535156 684.417969 59.761719 683.757812 L 31.542969 713.265625 C 29.765625 715.316406 29.511719 715.765625 30.773438 714.605469 L 85.957031 660.496094 C 71.21875 676.183594 71.128906 677.273438 85.695312 663.761719 C 91.464844 658.550781 91.890625 657.71875 86.984375 661.269531 L 95.207031 652.894531 L 287.320312 462.285156 L 433.109375 320.527344 C 441.5 312.738281 435.742188 318.65625 415.839844 338.292969 L 339.960938 412.175781 L 295.214844 457.480469 C 399.574219 357.660156 455.546875 306.046875 463.132812 302.644531 L 457.839844 309.167969 L 388.152344 374.019531 C 379.292969 382.421875 373.675781 388.367188 371.308594 391.863281 L 284.738281 475.597656 C 249.53125 511.554688 254.441406 508.257812 299.46875 465.714844 L 398.777344 368.75 L 414.449219 353.894531 L 414.082031 354.957031 L 347.007812 420.738281 C 342.464844 425.316406 342.867188 425.09375 348.207031 420.070312 L 359.957031 408.894531 L 342.945312 426.324219 L 280.449219 488.84375 L 259.328125 508.855469 L 262.121094 507.496094 L 157.785156 614.128906 L 116.945312 652.785156 C 112.402344 657.238281 111.1875 659.046875 113.304688 658.214844 L 235.527344 546.824219 L 196.128906 584.417969 L 110.140625 667.261719 C 105.265625 671.90625 102.988281 674.21875 103.304688 674.199219 L 792.832031 23.949219 L 975.859375 216.441406 C 978.679688 221.503906 1058.273438 306.660156 1214.640625 471.910156 L 1248.5 509.613281 C 1228.585938 487.78125 1226.671875 485.976562 1242.753906 504.203125 C 1260.242188 522.847656 1261.605469 523.726562 1246.855469 506.847656 L 1265.351562 526.523438 C 1270.699219 532.273438 1271.480469 533.597656 1267.6875 530.5 L 1272.257812 535.480469 L 1429.558594 705.015625 L 1442.195312 717.117188 C 1388.96875 660.957031 1362.476562 632.222656 1362.722656 630.921875 L 1495.476562 771.015625 L 1284.175781 967.871094 L 1238.980469 1010.441406 C 1244.113281 1005.953125 1244.285156 1005.984375 1239.496094 1010.535156 L 1014.039062 1222.980469 C 998.398438 1237.417969 993.054688 1242.160156 998.003906 1237.210938 L 1127.371094 1115.289062 C 1153.242188 1090.371094 1156.019531 1087.34375 1135.703125 1106.203125 C 1001.78125 1232.484375 871.621094 1354.160156 745.21875 1471.238281 L 960.449219 1268.308594 C 973.847656 1255.429688 975.894531 1253.167969 966.589844 1261.519531 L 918.84375 1305.636719 L 926.324219 1298.242188 L 1086.253906 1148.21875 L 1113.4375 1122.59375 L 1110.214844 1125.109375 L 1124.40625 1111.636719 L 1187.5 1053.734375 C 1184.167969 1056.648438 1184.148438 1056.1875 1187.441406 1052.359375 L 1392.304688 858.179688 C 1397.773438 851.390625 1396.167969 851.835938 1387.488281 859.523438 L 1376.433594 870.445312 C 1387.941406 859.082031 1384.78125 861.707031 1366.949219 878.3125 L 1337.09375 906.945312 L 1316.480469 925.167969 L 1079.800781 1149.386719 C 1078.066406 1150.898438 1078.460938 1150.382812 1080.984375 1147.835938 L 1100.035156 1129.253906 L 1214.425781 1020.527344 C 1219.433594 1015.464844 1218.859375 1015.523438 1212.699219 1020.703125 L 1194.351562 1037.886719 C 1188.675781 1043.125 1187.507812 1043.957031 1190.84375 1040.386719 L 1257.488281 977.652344 C 1278.519531 957.371094 1285.910156 949.9375 1279.660156 955.347656 L 1046.820312 1175.648438 C 1026.039062 1195.042969 1027.039062 1193.835938 1049.808594 1172.023438 L 1275.3125 957.371094 L 1306.835938 928.886719 L 1318.957031 917.164062 C 1315.578125 919.773438 1316.222656 918.960938 1320.902344 914.730469 L 1373.753906 865.757812 L 1401.039062 841.65625 L 1484.640625 762.847656 L 1487.714844 783.417969 L 1459.734375 753.476562 C 1477.78125 772.890625 1478.371094 774.597656 1461.5 758.601562 L 1456.585938 753.15625 C 1462.796875 758.03125 1462.640625 757.058594 1456.121094 750.242188 L 1407.277344 700.300781 L 1402.277344 694.160156 L 1393.058594 685.109375 L 1384.984375 676.074219 L 1386.789062 677.242188 L 1373.351562 662.757812 L 1362.804688 651.746094 C 1368.683594 659.109375 1367.800781 658.566406 1360.152344 650.113281 L 1352.75 641.015625 L 1329.03125 617.914062 L 1331.402344 620.945312 L 1319.453125 608.828125 C 1313.589844 602.546875 1313.039062 601.453125 1317.796875 605.546875 L 1243.875 528.121094 L 1222.945312 505.558594 C 1212.382812 492.972656 1213.894531 493.679688 1227.480469 507.683594 L 1208.324219 486.925781 L 1172.703125 449.925781 L 1201.1875 480.144531 C 1209.214844 489.566406 1210.21875 491.457031 1204.207031 485.816406 L 1193.042969 472.007812 L 925.863281 192.296875 L 918.074219 183.921875 C 928.496094 193.988281 929.722656 194.894531 921.761719 186.632812 L 909.085938 173.890625 C 917.109375 182.582031 917.144531 182.902344 909.199219 174.855469 L 782.671875 43.238281 L 805.96875 40.472656 L 747.398438 94.675781 L 707.472656 134.746094 C 663.304688 177.8125 643.738281 196.273438 648.765625 190.132812 L 643.089844 195.894531 C 646.546875 193.195312 645.785156 194.222656 640.804688 198.972656 L 619.082031 219.878906 L 610.996094 227.5 C 606.9375 231.359375 606.761719 231.316406 610.46875 227.375 L 598.515625 238.4375 L 575.933594 261.535156 C 571.535156 264.714844 565.109375 270.429688 556.65625 278.6875 L 523.292969 311.984375 L 524.113281 310.414062 L 512.992188 319.859375 C 523.953125 309.160156 523.683594 308.660156 512.1875 318.359375 L 490.25 338.210938 L 490.011719 339.230469 L 497.859375 332.410156 L 490.5625 342.441406 L 427.769531 403.730469 L 397.945312 430.746094 L 381.667969 447.1875 L 385.984375 443.980469 L 347.945312 480.1875 L 331.253906 494.441406 C 280.4375 544.46875 229.160156 594.082031 177.421875 643.273438 C 175.410156 644.894531 174.90625 644.742188 175.902344 642.804688 L 159.722656 657.347656 L 157.390625 660.25 L 170.132812 648.714844 L 163.648438 656.199219 L 70.664062 745.972656 L 66.882812 712.03125 C 336.066406 994.269531 495.488281 1163.308594 545.144531 1219.152344 C 597.335938 1277.554688 592.128906 1273.246094 529.523438 1206.234375 L 628.332031 1315.019531 L 649.078125 1338.660156 C 633.226562 1322.609375 629.957031 1319.628906 639.269531 1329.710938 L 664.140625 1356.402344 C 652.578125 1346.078125 651.71875 1346.363281 661.5625 1357.253906 L 646.1875 1340.976562 L 647.410156 1342.71875 L 736.554688 1435.417969 C 741.386719 1440.058594 742.851562 1442.660156 740.945312 1443.222656 L 760.886719 1466.859375 C 760.96875 1467.894531 760.617188 1467.9375 759.832031 1466.992188 " fill-opacity="1" fill-rule="nonzero"/></g></g></g></g></g></g></g></g><g clip-path="url(#b3f29ae986)"><g clip-path="url(#0e73acbd5b)"><g clip-path="url(#1c67b59f1a)"><path fill="#ffffff" d="M 783.769531 1388.710938 L 794.707031 1378.714844 C 822.070312 1354.347656 892.019531 1285.6875 1004.554688 1172.734375 L 1062.925781 1121.648438 L 860.820312 1325.566406 C 945.230469 1239.164062 938.09375 1245.023438 839.40625 1343.140625 L 800.90625 1395.085938 C 814.488281 1391.574219 836.363281 1374.40625 866.539062 1343.578125 L 863.640625 1352.589844 C 865.605469 1352.304688 872.210938 1346.917969 883.464844 1336.429688 C 1046.289062 1181.417969 1140.53125 1089.148438 1166.191406 1059.621094 L 1239.570312 990.328125 L 1138.613281 1089.667969 C 1131.917969 1096.347656 1130.996094 1097.503906 1135.855469 1093.128906 L 1150.765625 1079.367188 L 1441.71875 800.753906 L 1429.847656 678.167969 L 1283.761719 535.660156 L 1279.171875 532.351562 L 1405.421875 660.601562 L 1352.953125 610.25 C 1295.832031 554.070312 1208.21875 465.601562 1090.117188 344.84375 L 964.960938 230.867188 L 823.6875 89.773438 L 686.96875 64.726562 L 671.027344 81.539062 L 813.433594 82.65625 C 827.585938 98.148438 835.886719 108.035156 838.34375 112.316406 L 803.996094 82.796875 L 694.203125 72.070312 C 443.984375 328.472656 237.375 537.679688 74.382812 699.695312 L 65.882812 814.9375 C 208.242188 956.351562 300.738281 1049.691406 343.378906 1094.960938 C 323.191406 1068.472656 234.023438 977.476562 75.867188 821.972656 L 66.347656 710.660156 L 620.808594 155.496094 C 535.898438 245.933594 354.171875 429.929688 75.628906 707.492188 L 77.257812 817.28125 C 366.371094 1104.582031 507.207031 1246.769531 499.761719 1243.851562 L 458.558594 1194.570312 L 574.726562 1313.785156 L 492.765625 1223.980469 C 558.695312 1290.941406 627.789062 1363.175781 700.050781 1440.683594 L 604.367188 1335.648438 L 595.546875 1325.457031 C 601.28125 1329.753906 599.851562 1326.84375 591.253906 1316.726562 L 555.695312 1278.730469 L 368.1875 1083.65625 L 87.511719 799.519531 L 95.148438 716.144531 L 197.652344 617.210938 C 190.746094 626.28125 157.492188 660.449219 97.890625 719.71875 L 87.226562 792.726562 L 457.480469 1163.535156 L 277.726562 976.144531 L 232.691406 925.714844 L 114.222656 806.519531 L 93.574219 737.320312 L 189.886719 641.90625 C 267.757812 568.585938 265.753906 572.953125 183.867188 655.003906 L 277.363281 563.136719 L 116.898438 761.488281 L 221.664062 848.960938 L 124.917969 766.355469 L 123.515625 756.140625 L 173.808594 698.53125 L 124.40625 762.25 L 212.765625 836.238281 C 209.628906 832.714844 181.539062 808.257812 128.496094 762.871094 L 132.472656 753.289062 L 399.894531 440.539062 L 506.570312 334.644531 L 448.269531 396.464844 L 500.753906 345.757812 C 483.089844 371.347656 451.285156 411.050781 405.339844 464.867188 L 584.929688 258.632812 L 700.347656 143.523438 C 659.265625 186.203125 531.703125 335.667969 317.667969 591.917969 C 312.425781 598.085938 313.460938 596.746094 320.769531 587.894531 L 437.769531 446.96875 C 451.214844 430.476562 447.285156 434.722656 425.988281 459.710938 L 149.402344 786.777344 L 154.851562 739.636719 L 268.296875 833.117188 L 413.691406 958.488281 C 452.867188 988.792969 496.082031 1024.171875 543.339844 1064.632812 C 513.410156 1036.167969 387.355469 928.382812 165.171875 741.285156 L 158.828125 784.363281 C 449.820312 438.59375 640.082031 215.3125 729.617188 114.527344 L 757.453125 114.722656 L 775.976562 131.378906 C 774.980469 125.164062 760.730469 118.796875 733.226562 112.277344 L 483.613281 404.304688 C 481.523438 409.796875 565.542969 312.492188 735.679688 112.394531 L 758.851562 119.925781 C 770.878906 129.269531 792.171875 148.558594 822.726562 177.792969 L 1250.519531 588.390625 C 1253.402344 591.023438 1248.882812 586.257812 1236.953125 574.089844 L 1189.324219 525.855469 L 1058.433594 394.5625 C 1047.75 383.632812 1051.371094 386 1069.292969 401.65625 L 1123.617188 453.242188 L 1380.121094 715.347656 L 1398.792969 761.425781 L 1370.050781 793.980469 C 1344.46875 819.671875 1295.878906 866.085938 1224.28125 933.21875 C 1250.863281 909.347656 1277.414062 885.285156 1303.929688 861.03125 L 1256.886719 909.289062 L 1068.300781 1089.738281 L 1011.757812 1155.355469 C 932.070312 1230.863281 856.074219 1308.648438 783.769531 1388.710938 " fill-opacity="1" fill-rule="nonzero"/></g></g></g></g></g><path fill="#ffffff" d="M 678.4375 433.765625 L 674.445312 383.171875 L 926.328125 383.171875 L 883.640625 451.035156 L 684.167969 506.875 L 683.117188 493.5625 L 681.746094 475.929688 L 679.6875 450.148438 Z M 678.4375 433.765625 " fill-opacity="1" fill-rule="nonzero"/><g clip-path="url(#c6b81d65f0)"><path fill="#ffffff" d="M 598.996094 699.410156 L 562.28125 781.355469 L 483.523438 617.75 Z M 598.996094 699.410156 " fill-opacity="1" fill-rule="nonzero"/></g><path fill="#ffffff" d="M 702.605469 941.007812 L 704.382812 997.53125 L 674.445312 1014.355469 L 641.277344 945.445312 L 635.914062 934.269531 L 619.613281 900.5 L 614.085938 889 L 596.535156 852.527344 L 639.503906 728.015625 L 742.914062 801.125 L 764.457031 773.609375 L 772.003906 764.003906 L 793.910156 736.003906 L 801.535156 726.320312 L 832.363281 686.941406 L 915.074219 678.429688 L 852.253906 752.144531 L 844.183594 761.625 L 818.480469 791.722656 L 810.535156 801.085938 L 752.355469 869.351562 L 641.199219 798.984375 L 669.765625 881.695312 L 673.796875 893.355469 L 684.085938 923.171875 L 688.082031 934.671875 L 692.035156 946.132812 Z M 702.605469 941.007812 " fill-opacity="1" fill-rule="nonzero"/><g clip-path="url(#25d13a61f3)"><path fill="#ffffff" d="M 912.289062 839.496094 L 864.558594 938.789062 L 855.277344 958.113281 L 824.816406 1021.417969 L 809.96875 1052.285156 L 752.355469 1172.152344 L 770.710938 1089.683594 L 775.433594 1068.460938 L 791.894531 994.628906 L 795.445312 978.609375 L 803.632812 941.855469 L 755.015625 969.128906 L 755.015625 915.628906 Z M 912.289062 839.496094 " fill-opacity="1" fill-rule="nonzero"/></g><path fill="#ffffff" d="M 1046.765625 523.902344 L 968.289062 615.972656 L 884.730469 620.089844 L 901.597656 598.542969 L 873.675781 599.671875 L 858.0625 600.320312 L 811.90625 602.175781 L 795.566406 602.859375 L 692.035156 607.054688 L 688.566406 562.796875 L 838.613281 522.570312 L 825.703125 543.105469 L 847.289062 541.25 L 864.316406 539.757812 L 906.035156 536.125 L 922.214844 534.714844 Z M 1046.765625 523.902344 " fill-opacity="1" fill-rule="nonzero"/><g clip-path="url(#25f1dc59b3)"><path fill="#76dee2" d="M 765.828125 371.066406 L 753.363281 371.066406 L 843.335938 274.4375 Z M 765.828125 371.066406 " fill-opacity="1" fill-rule="nonzero"/></g><path fill="#76dee2" d="M 675.695312 553.71875 L 552.476562 586.800781 L 668.511719 462.210938 L 670.652344 489.726562 L 636.035156 532.898438 L 673.234375 522.488281 L 685.136719 519.140625 L 874.039062 466.285156 L 891.390625 461.40625 L 980.515625 436.46875 L 915.757812 523.136719 L 875.332031 526.644531 L 904.015625 492.472656 L 865.324219 502.839844 L 848.136719 507.480469 L 687.597656 550.53125 Z M 675.695312 553.71875 " fill-opacity="1" fill-rule="nonzero"/><path fill="#76dee2" d="M 606.984375 902.152344 L 623.808594 937.054688 L 492.199219 967.433594 L 562.683594 810.082031 L 569.140625 795.636719 L 609.082031 706.511719 L 614.125 695.253906 L 632.644531 653.898438 L 782.9375 730.4375 L 761.511719 757.75 L 641.199219 685.976562 L 633.332031 708.8125 L 629.214844 720.753906 L 589.070312 837.035156 L 583.460938 853.292969 L 564.699219 907.722656 Z M 606.984375 902.152344 " fill-opacity="1" fill-rule="nonzero"/><path fill="#76dee2" d="M 777.652344 1002.859375 L 759.695312 1083.472656 L 720.359375 1120.953125 L 716.726562 1004.511719 L 716.285156 990.875 L 714.546875 935.238281 L 714.105469 921.964844 L 713.945312 916.273438 L 695.988281 920.429688 L 686.0625 891.742188 L 742.914062 884.28125 L 742.914062 1022.871094 Z M 777.652344 1002.859375 " fill-opacity="1" fill-rule="nonzero"/><path fill="#76dee2" d="M 946.382812 905.582031 L 849.589844 997.816406 L 873.796875 947.421875 Z M 946.382812 905.582031 " fill-opacity="1" fill-rule="nonzero"/><g clip-path="url(#5be08cbe6a)"><path fill="#76dee2" d="M 825.988281 675.445312 L 743.277344 683.957031 L 801.375 614.722656 L 848.742188 612.785156 L 832.320312 634.773438 L 858.871094 633.484375 L 874.847656 632.675781 L 957.515625 628.601562 L 974.140625 627.792969 L 1092.234375 621.984375 L 850.878906 811.050781 L 829.054688 798.019531 L 855.277344 767.273438 L 858.949219 769.128906 L 978.375 659.75 L 943.878906 663.300781 L 926.410156 665.117188 L 842.730469 673.710938 Z M 825.988281 675.445312 " fill-opacity="1" fill-rule="nonzero"/></g></svg>